<?xml version="1.0" encoding="UTF-8" standalone="no"?>
<svg
   xmlns:dc="http://purl.org/dc/elements/1.1/"
   xmlns:cc="http://creativecommons.org/ns#"
   xmlns:rdf="http://www.w3.org/1999/02/22-rdf-syntax-ns#"
   xmlns:svg="http://www.w3.org/2000/svg"
   xmlns="http://www.w3.org/2000/svg"
   xmlns:xlink="http://www.w3.org/1999/xlink"
   xmlns:sodipodi="http://sodipodi.sourceforge.net/DTD/sodipodi-0.dtd"
   xmlns:inkscape="http://www.inkscape.org/namespaces/inkscape"
   version="1.1"
   width="841.88977"
   height="595.27557"
   id="svg26"
   viewBox="0 0 841.88977 595.27557"
   sodipodi:docname="VOLEY LOGO.svg"
   inkscape:export-filename="/home/lautaro/personal/contadordevoleyreactnative/assets/voley_logo.png"
   inkscape:export-xdpi="96"
   inkscape:export-ydpi="96"
   inkscape:version="1.0.2 (1.0.2+r75+1)">
  <metadata
     id="metadata30">
    <rdf:RDF>
      <cc:Work
         rdf:about="">
        <dc:format>image/svg+xml</dc:format>
        <dc:type
           rdf:resource="http://purl.org/dc/dcmitype/StillImage" />
        <dc:title></dc:title>
      </cc:Work>
    </rdf:RDF>
  </metadata>
  <sodipodi:namedview
     pagecolor="#ffffff"
     bordercolor="#666666"
     borderopacity="1"
     objecttolerance="10"
     gridtolerance="10"
     guidetolerance="10"
     inkscape:pageopacity="0"
     inkscape:pageshadow="2"
     inkscape:window-width="1920"
     inkscape:window-height="1025"
     id="namedview28"
     inkscape:document-rotation="0"
     showgrid="false"
     inkscape:zoom="1.0256687"
     inkscape:cx="116.60643"
     inkscape:cy="345.51971"
     inkscape:window-x="0"
     inkscape:window-y="27"
     inkscape:window-maximized="1"
     inkscape:current-layer="svg26" />
  <defs
     id="defs12">
    <linearGradient
       id="grad1">
      <stop
         offset="0.0000%"
         stop-color="#009ee0"
         stop-opacity="1.0000"
         id="stop2" />
      <stop
         offset="33.0000%"
         stop-color="#bd347e"
         stop-opacity="1.0000"
         id="stop4" />
      <stop
         offset="67.0000%"
         stop-color="#e30079"
         stop-opacity="1.0000"
         id="stop6" />
      <stop
         offset="100.0000%"
         stop-color="#ffec00"
         stop-opacity="1.0000"
         id="stop8" />
    </linearGradient>
    <linearGradient
       xlink:href="#grad1"
       id="grad2"
       x1="222.6926"
       y1="96.2008"
       x2="222.6926"
       y2="484.7434"
       gradientUnits="userSpaceOnUse"
       gradientTransform="translate(-45.405572,-38.99077)" />
  </defs>
  <path
     id="path14"
     style="fill:url(#grad2)"
     d="M 371.44795,57.210402 A 194.2713,194.2713 0 1 0 565.82881,251.48189 194.2713,194.2713 0 0 0 371.55927,57.210402 a 194.2713,194.2713 0 0 0 -0.11132,0 z m 0.11132,11.902348 c 100.719,0 182.36719,81.65014 182.36719,182.36914 0,100.719 -81.64819,182.36718 -182.36719,182.36718 -100.719,0 -182.36914,-81.64818 -182.36914,-182.36718 0,-100.719 81.65014,-182.36914 182.36914,-182.36914 z m -5.5625,50.53125 c -15.2107,0.652 -30.07857,3.96482 -44.38867,9.64062 l -9.625,4.34961 c -0.4479,0.2325 -0.79848,0.49914 -1.33008,0.77734 -1.8191,0.9521 -3.31615,1.71486 -5.12695,2.78516 -0.9823,0.5809 -1.55796,0.90572 -2.47266,1.48242 -4.7916,3.0202 -12.25779,8.00275 -16.46289,11.75196 -1.4555,1.29769 -2.67806,2.50604 -4.19336,3.71484 -4.6496,3.7093 -15.28247,16.28075 -18.73437,21.34375 -1.1057,1.621 -2.16521,2.96874 -3.19531,4.71484 l -3,4.91211 c -4.7507,8.5011 -6.71628,12.60653 -10.13867,21.76563 -4.3322,11.5949 -7.60743,27.99493 -7.60743,40.64453 0,13.8613 0.39928,22.42458 3.79688,36.01758 1.8157,7.2644 3.22345,11.28121 5.84375,17.88672 3.4416,8.6764 7.54082,15.58415 12.45312,23.40624 0.5778,0.9196 1.10064,1.50912 1.74024,2.47852 2.5076,3.7989 4.23468,5.59273 6.86328,8.95703 1.1988,1.5342 2.51331,2.69315 3.6914,4.21875 1.0544,1.3658 2.78132,2.87281 4.04102,4.13281 l 10.34766,9.42774 c 0.7434,0.5795 1.40396,1.11862 2.19336,1.76172 0.775,0.6313 1.4663,1.12988 2.25,1.70508 8.7943,6.4598 17.99692,11.64347 28.14062,15.89257 1.9614,0.8216 3.74314,1.52757 5.68164,2.23047 11.7043,4.2431 27.81162,7.67774 40.57422,7.67774 14.1565,0 22.68894,-0.39571 36.49414,-3.84961 11.408,-2.854 24.15173,-7.91884 33.92383,-13.80274 1.6935,-1.0197 3.20757,-1.89378 4.88867,-3.02148 0.8613,-0.5776 1.60335,-0.96813 2.40625,-1.54883 l 11.44922,-8.58984 c 4.5386,-3.6446 12.1555,-11.4124 15.9668,-15.9375 1.2591,-1.4948 2.34277,-2.86489 3.54297,-4.36719 2.4162,-3.0251 4.47382,-6.29746 6.60742,-9.47656 12.0605,-17.9724 20.77734,-45.00479 20.77734,-67.02539 0,-14.1565 -0.39571,-22.68894 -3.84961,-36.49414 -5.2113,-20.8296 -13.98044,-36.59807 -26.96094,-52.66797 -2.041,-2.5269 -9.33675,-10.28409 -11.71875,-12.27539 L 445.1999,141.97798 c -0.5269,-0.3872 -0.60968,-0.40617 -1.11328,-0.73047 l -6.16602,-3.85547 c -3.3011,-1.9783 -6.96263,-3.8716 -10.54883,-5.5332 -12.0224,-5.5709 -23.45457,-9.01486 -37.01367,-10.97656 -4.4283,-0.6405 -8.83725,-1.05028 -13.22265,-1.23828 z m 4.24219,9.49218 c 4.375,0 7.67911,0.0417 11.91211,0.48243 3.7147,0.38659 3.61377,0.7316 7.63867,2.3789 2.2866,0.9357 4.43278,2.01888 6.64258,3.11328 l 6.41992,3.59961 c 5.6238,3.3697 9.23709,6.01777 14.40039,10.38477 4.4734,3.7837 6.03708,5.57242 10.13868,9.63672 l 5.75781,6.63672 c 0.4375,0.55709 0.72105,1.00206 1.12695,1.50976 1.5069,1.8838 2.71204,3.61482 4.18164,5.57422 1.4652,1.9536 2.64186,3.97837 3.97656,6.04297 4.9451,7.6496 8.26529,14.84785 11.61719,23.18945 0.4599,1.1447 0.87217,2.64595 1.35547,3.65234 l -7.26953,6.17774 c -7.791,5.8724 -15.97701,9.40355 -25.19531,12.24805 -0.6862,0.2119 -2.07552,0.56876 -2.60352,0.82226 l -2.01367,-6.16015 c -2.7508,-8.0882 -7.22228,-17.84295 -11.48438,-24.90235 -3.1536,-5.2239 -6.32174,-10.04661 -9.96484,-14.82031 l -6.39453,-7.58008 c -3.3174,-3.5868 -5.12447,-5.10103 -8.57617,-8.29883 -12.1629,-11.2686 -26.9018,-19.10634 -42.7461,-23.96484 -2.7675,-0.8486 -6.05344,-1.65384 -8.99804,-2.33984 0.0529,-0.0368 0.14021,-0.14826 0.16601,-0.0977 l 1.8418,-0.79688 c 11.7533,-4.0393 25.37121,-6.48828 38.07031,-6.48828 z m 51.41797,10.81055 c 4.1396,0.9644 16.90321,9.16741 20.19531,11.44531 l 6.0625,4.48438 c 0.6652,0.5226 1.22356,0.99903 1.87696,1.55273 l 5.67773,5.12891 c 1.2143,1.2287 2.40258,1.93304 3.55078,3.30664 l 6.70899,7.5293 c 4.5493,5.6319 5.19991,5.28676 3.91601,8.47656 -1.9898,4.9448 -2.71834,7.35563 -5.58594,12.08203 -0.4749,0.7825 -1.06113,1.52592 -1.26953,2.41992 h -0.52734 c -0.3792,-1.6288 -2.86531,-6.74789 -3.69531,-8.43359 l -1.9961,-4.06836 c -0.7779,-1.3968 -1.2595,-2.64635 -2.0664,-3.99805 -3.0941,-5.1829 -5.92843,-10.08069 -9.45313,-14.80469 -1.7794,-2.3857 -3.3761,-4.5796 -5.2832,-6.8457 -0.99,-1.1764 -1.8381,-2.10616 -2.7793,-3.28516 l -12.12891,-12.1289 c -0.61979,-0.4965 -1.00108,-0.84871 -1.58398,-1.31641 -0.7998,-0.6416 -1.02294,-0.65442 -1.61914,-1.54492 z m -107.20312,3.92578 c 0.30153,0.0236 0.6557,0.0706 1.09374,0.13672 9.7165,1.4672 14.2983,1.84162 24.3379,5.19922 11.3267,3.7878 21.96531,9.53428 31.22851,17.02148 l 5.91406,5.16016 c 0.7906,0.8026 1.18337,1.01624 1.97657,1.71484 0.6749,0.5942 1.19441,1.19605 1.84961,1.84375 0.8,0.7908 1.01694,1.18437 1.71484,1.97657 0.6164,0.7 1.22753,1.13697 1.83203,1.85937 10.4855,12.5228 19.34071,26.36803 24.56641,42.14453 0.6091,1.8389 1.452,3.93363 1.8789,5.76563 -5.4936,1.2798 -16.66354,2.35683 -22.68554,2.36523 l -18.18946,-0.25 c -1.893,-0.0449 -3.78117,-0.53125 -5.79687,-0.53125 -0.7204,-2.698 -8.40768,-13.67979 -10.17188,-15.93359 l -5.97461,-7.20899 c -2.1345,-2.3035 -4.36344,-4.97552 -6.68164,-6.76562 -1.4549,-1.1232 -4.5536,-4.24634 -7,-6.18164 -6.6305,-5.2455 -13.7909,-10.02586 -21.5,-13.56836 l -9.20312,-3.98242 c -2.2601,-0.9118 -4.35138,-1.51107 -6.67188,-2.29297 -2.1692,-0.731 -4.3035,-1.29727 -6.7832,-1.91797 -2.098,-0.5249 -5.25488,-1.38653 -7.48828,-1.51563 l -0.44922,-0.22461 c -0.7359,-0.2064 -0.95657,0.28482 -0.0723,-0.70898 2.9954,-3.3649 6.97969,-6.99662 10.45899,-9.91992 1.4037,-1.1795 2.6277,-2.27246 4.0332,-3.34766 7.5458,-5.7727 8.71701,-5.99079 15.59961,-10.24219 0.843,-0.52095 1.279,-0.66648 2.1836,-0.5957 z m -40.45508,33.51563 c 3.0196,0 6.14964,1.08406 8.96484,1.31836 -0.0937,0.1403 -7.31816,7.78801 -9.19336,10.32031 -8.1995,11.072 -11.64879,15.75106 -17.77539,29.94726 -1.1718,2.7157 -2.12494,5.49241 -3.05664,8.28321 -0.4698,1.4066 -0.88776,2.86969 -1.31836,4.21679 l -1.35156,4.44922 c 0,-2.5677 0.89931,-6.46273 1.38281,-8.89844 1.979,-9.9664 6.12296,-21.60245 10.56836,-30.56445 1.1677,-2.3541 2.42125,-4.33555 3.68555,-6.59765 0.662,-1.1847 1.12144,-2.02843 1.86914,-3.14063 z m 20.30273,4.21875 7.60938,2.67382 c 1.1054,0.4442 2.38834,0.89053 3.55664,1.45313 1.3278,0.6396 2.1951,1.12723 3.5664,1.70703 1.0058,0.4252 2.11341,1.14421 3.28711,1.72461 l 9.92969,5.88867 c -1.5874,2.3705 -7.54256,9.08315 -10.60156,13.65625 -4.7875,7.1574 -6.20085,9.88576 -10.33985,16.81836 l -3.14062,6.08789 c -6.3666,12.6643 -12.53817,31.96762 -14.10547,46.54102 -0.2075,1.9318 -0.45957,3.65299 -0.57227,5.49218 -0.0957,1.5619 -0.26277,4.20558 -0.45507,5.60938 -0.6986,5.0988 0.16822,17.88826 0.76562,23.34766 0.9357,8.5548 2.77728,16.95183 5.11328,25.21093 0.5163,1.8263 1.01424,3.10304 1.43164,4.89453 -1.3499,-0.71469 -1.88813,-1.51457 -2.96093,-2.57617 -2.225,-2.2018 -0.95855,-0.51812 -4.09375,-4.07812 l -4.20508,-4.49805 c -4.6332,-5.5086 -8.10902,-9.9973 -11.79492,-16.1543 -2.152,-3.594 -4.21102,-7.02208 -6.04102,-10.83398 l -1.6875,-3.84961 c -0.4892,-1.2971 -0.82173,-3.43905 -1.04883,-4.75195 -0.5097,-2.9465 -1.39062,-6.89681 -1.39062,-9.97071 l -0.24024,-0.24023 -0.0234,-1.62109 -0.2246,-0.48829 c -0.284,-4.9091 -0.56641,-8.92438 -0.56641,-14.23828 0,-2.2515 -0.16543,-5.20244 0.0137,-7.36914 0.1866,-2.2535 0.51367,-4.65511 0.51367,-7.13281 0.3889,0 0.26368,0.0819 0.26367,-0.35742 l 0.0195,-1.75195 0.24414,-0.26368 c 0,-2.0347 0.48656,-3.97213 0.78906,-5.80273 0.3124,-1.895 0.68146,-3.81211 1.16016,-5.69531 2.469,-9.7154 4.41042,-15.98853 8.86132,-24.89063 0.7581,-1.5164 1.42447,-3.0581 2.32227,-4.5332 2.0074,-3.2993 2.55989,-4.61422 5.05859,-8.38672 0.445,-0.6715 0.86906,-1.2126 1.31836,-1.8457 l 4.3711,-5.91407 c 2.879,-3.6633 10.20997,-11.79412 13.29687,-13.86132 z m 182.99024,8.17382 2.64843,4.99805 c 0.9956,1.7139 1.68793,3.09706 2.54883,5.09766 l 3.42969,8.17187 c 2.4714,6.1358 6.92969,22.04917 6.92969,28.13867 0,1.2839 -4.70071,11.30919 -5.91211,13.33789 -2.6622,4.4595 -6.16701,10.26834 -9.97461,14.01954 -0.4343,0.4278 -0.78453,0.73352 -1.17383,1.19922 -1.8432,2.2049 -2.73535,2.79548 -4.75195,4.73828 -0.604,0.5818 -0.84702,0.66445 -1.44922,1.18945 -19.4267,16.9309 -49.68802,22.20703 -74.82422,22.20703 -15.1504,0 -34.43757,-2.14126 -49.19727,-5.38476 -3.5229,-0.77421 -3.36217,0.49451 -1.16797,-7.80079 l 4.22071,-13.18164 c 3.1541,-7.9512 8.19075,-19.04856 12.81445,-25.94726 0.552,-0.8236 1.4512,-1.90877 1.6875,-2.79297 l 6.0625,0.5293 c 1.147,0.0549 0.96513,0.20051 2.11133,0.26171 18.4174,0.9823 42.63647,-0.56906 59.51367,-7.19726 13.2029,-5.1848 21.83632,-9.56101 32.44922,-20.28711 3.2958,-3.331 8.92589,-11.3906 10.96289,-15.4043 0.5818,-1.1458 2.41247,-5.40898 3.07227,-5.89258 z m -147.39454,11.3379 c 3.5652,2.3874 12.08177,11.55412 14.91797,15.14062 3.2605,4.1238 7.25047,9.67168 9.70118,14.29688 1.1435,2.15829 0.47096,2.28969 -0.67774,3.99609 -3.322,4.935 -5.98134,10.29253 -8.64844,15.61133 -1.3618,2.716 -2.57348,5.36243 -3.76758,8.36132 -5.3122,13.34101 -8.1315,23.33925 -10.2539,37.99805 -0.2383,1.6463 -0.31314,3.36294 -0.55664,5.24414 -0.5324,4.1175 -0.39396,4.84034 -0.43946,8.52344 -0.0175,1.4213 -0.2433,1.55501 -0.2832,2.88281 -0.0702,2.3159 0.27865,3.84063 0.28125,5.79883 0.005,4.2667 0.44894,7.55967 0.77344,11.35547 0.1636,1.912 0.52101,3.60965 0.75391,5.31055 0.2334,1.7036 0.79913,3.64359 0.83593,5.18359 l 0.26367,0.30859 c 0,4.0125 5.97632,21.22405 7.75782,25.46485 0.4433,1.0553 1.2407,2.55066 1.4707,3.53906 -3.0668,-0.2553 -13.21766,-4.02006 -16.53516,-5.34766 -4.314,-1.7265 -15.85694,-7.2502 -19.81054,-10.25 -1.7237,-1.308 -6.35296,-15.80617 -7.06446,-17.98437 -2.4524,-7.5079 -5.96554,-24.43815 -5.90234,-32.59375 0.017,-2.1799 -0.27372,-3.21629 -0.26172,-5.27539 0.0851,-14.8962 1.37819,-24.9421 5.27539,-39.0293 0.786,-2.8411 1.89311,-5.63905 2.66211,-8.43555 l 0.24024,-0.24023 c 0.2984,-1.3348 0.75675,-2.25168 1.21875,-3.55078 l 4.49414,-10.53711 c 5.4484,-10.8377 11.38773,-20.95061 18.99023,-30.31641 l 3.32617,-4.05664 c 0.518,-0.6123 0.80018,-0.74474 1.23828,-1.39843 z m -79.89257,35.33398 0.0781,0.0781 c -0.005,-0.005 -0.10422,-0.0519 -0.0781,-0.0781 z m 243.63476,21.09375 c 0,6.1364 -1.04175,12.96048 -2.12695,18.17578 -1.1203,5.3824 -2.64808,11.16065 -4.42578,15.87695 -0.4855,1.2882 -0.84806,2.52176 -1.31836,3.68946 l -2.93555,7.08593 c -1.9232,3.8659 -2.96062,6.32517 -5.32422,10.23047 -1.8002,2.9748 -5.57566,9.78712 -8.38476,11.91992 -1.9324,1.467 -4.01806,2.8551 -6.06836,4.2168 -10.1687,6.7536 -25.40774,11.57345 -37.55664,13.59375 -2.8468,0.4735 -6.10244,1.16797 -9.14844,1.16797 l -0.23047,0.23242 -2.08984,0.0312 -0.54688,0.24414 c -4.8772,0.1409 -8.90775,0.54688 -14.12305,0.54688 h -5.12695 -6.85351 c 0,-0.4013 0.0813,-0.26367 -0.38868,-0.26367 -3.0271,0 -5.14702,-0.33884 -8.04882,-0.24024 -0.3478,-0.3504 0.55889,-0.28711 -0.69141,-0.28711 -9.4747,0 -35.52261,-5.52161 -36.22461,-5.53711 -1.8102,-7.7707 -2.81035,-20.64608 -2.37305,-28.74218 0.0638,-1.1798 0.26394,-1.2587 0.27344,-2.625 0.0351,-4.9422 0.70602,-6.48604 1.04492,-10.55664 2.0813,0.485 4.02288,0.93516 6.26367,1.38476 l 13.51172,2.30664 c 2.1353,0.3677 4.744,0.73395 7.1211,0.81445 l 0.3164,0.24024 c 2.7296,0 4.689,0.60281 7.5918,0.50391 0.3473,0.34989 -0.54466,0.2871 0.65234,0.2871 2.9245,0 5.86558,0.3829 8.57618,0.5293 l 27.24609,-0.5293 c 0.7698,0 0.24021,0.0694 0.44141,-0.27148 5.0417,0.0541 15.07297,-2.02444 20.10546,-3.08984 2.089,-0.4421 4.43213,-1.03314 6.29493,-1.61524 l 11.60156,-3.95508 10.76562,-5.05468 c 10.1917,-5.9139 18.21525,-12.17658 25.52735,-21.14258 1.2278,-1.5055 2.28116,-2.86605 3.38476,-4.52735 0.6862,-1.0335 2.55378,-4.11802 3.26758,-4.64062 z m -45.08789,88.85742 c -0.7647,1.0438 -7.51547,5.79581 -9.17187,6.91211 l -10.07618,6.00781 c -1.4843,0.7302 -2.67528,1.53221 -4.30468,2.28711 -15.4001,7.1353 -32.62937,12.21485 -52.38477,12.21485 -7.5306,0 -10.1961,-0.36544 -16.9082,-1.02344 -2.8569,-0.2803 -1.93479,-0.86227 -4.27539,-5.48047 -1.6167,-3.1898 -6.70118,-15.81949 -6.76758,-18.80859 7.4138,1.7274 15.51249,3.0024 23.68359,4.0039 25.7963,3.1613 49.79395,2.65059 74.78125,-4.41601 1.9692,-0.5568 3.61563,-1.27607 5.42383,-1.69727 z" />
  <defs
     id="defs22">
    <linearGradient
       id="grad3">
      <stop
         offset="0%"
         stop-color="#fbfbfb"
         stop-opacity="1.0000"
         id="stop16" />
      <stop
         offset="100%"
         stop-color="#ffffff"
         stop-opacity="1.0000"
         id="stop18" />
    </linearGradient>
    <linearGradient
       xlink:href="#grad3"
       id="grad4"
       x1="0"
       y1="0"
       x2="0"
       y2="1"
       gradientUnits="objectBoundingBox"
       gradientTransform="rotate(180,0.5,0.5)" />
  </defs>
</svg>
